<svg xmlns="http://www.w3.org/2000/svg" viewBox="0 0 512 512"><g data-name="Coffee Bean"><ellipse cx="234.667" cy="170.667" rx="215.984" ry="145.449" transform="rotate(-12.197 234.667 170.667)" style="fill:#5b2c06"/><path d="M426.226 132.963a21.335 21.335 0 0 0-21.203 19.222c-2.878 28.92-25.469 59.308-61.977 83.372-.138.09-.273.181-.407.274-.138.086-.277.174-.414.264-31.747 20.72-71.687 34.727-112.461 39.444a267.474 267.474 0 0 1-30.614 1.794c-30.29 0-58.548-5.47-81.722-15.82a21.333 21.333 0 0 0-17.399 38.959h.001q1.23.55 2.477 1.085l.332.143h.001q.913.39 1.834.773l.007.003.333.138h.001q.166.07.33.137l.01.004.332.136h.002l.333.136.008.004c.109.044.22.09.33.133l.01.004.329.133.01.004.33.133.007.003.843.335.006.002.332.131.01.004.333.131.009.003.334.13.007.003.335.13.009.004.333.128.012.005.333.127.01.004.165.063.001.001.168.064.01.004.16.06.01.004.165.063.012.004.152.057.019.008.161.06.015.006.153.058.015.005.327.123.024.008.324.121.022.008.325.12.023.01.326.119.023.008.326.12.02.007.331.12.017.007.329.119.025.009.15.054.014.005.164.06.019.006.156.056.01.003.166.06.018.006.147.052.025.01.164.057.008.003c.05.019.103.037.154.055l.025.01.163.056.011.005.154.054.025.008.324.114.03.01.325.114.028.01.323.112.033.011.142.05.021.007.16.055.03.01.147.05.016.006.163.056.024.008.148.05.022.008.163.055.022.008.146.05.024.008.16.054.032.01.13.045.04.013.158.054.019.006.14.047.039.013.158.053.019.006.143.048.036.012.162.054h.002l.159.053.034.011.162.054h.002l.156.052.042.014.32.105.036.012.147.048.015.005.163.053.032.01.147.048.017.005.164.054.029.009.146.047.023.007.16.052.035.011.139.045.026.008.163.053.026.008.141.045.033.01.162.052.023.007.14.045.038.012.16.05.02.007.144.045.04.013.157.05.026.007.133.042.048.015.157.049.008.003.156.048.039.012.16.05h.001l.164.051.036.011.15.046.016.005.162.05.038.012.138.042.027.009c.056.016.108.032.163.05l.03.008.145.045.027.008.163.05.032.009.138.042.034.01.162.049.027.008.141.043.036.01.164.05.018.005.144.043.043.013.158.047.025.007.141.043.042.012.16.048.015.004.148.044.044.013.162.047.002.001.158.046.049.015.156.045h.002l.162.048.046.014.146.042.016.005.164.047.04.012.14.04.026.008.161.046.042.012.138.04.029.008.161.046.04.011.136.04.033.009.16.045.044.013.127.036.043.012.16.045.029.008.142.04.036.01.167.047.014.004.158.044.03.009.17.047.008.002.158.045.038.01.166.046.01.002.157.044.04.011.161.044.005.002.166.045.04.011.141.039.03.008.162.044.041.012.139.037.03.008.162.044.042.011.133.036.04.011.159.043.043.011.131.036.04.01.161.043.039.01.133.036.043.011.163.044.028.007.141.037.043.012.162.042.03.008.138.036.047.013.164.042.014.004.154.04.04.01c.057.016.111.03.168.044l.005.002.159.041.05.013.147.038.018.004.16.041.054.014.13.034.036.009.156.04.058.015.12.03.046.012.155.04.053.012.122.031.05.013.153.039.054.013.123.031.045.011.161.04.044.012.126.03.05.014.158.039.048.011.121.03.054.014.158.039.04.01.129.031.054.013.157.04.038.008.13.032.054.013.151.037.034.008.145.035.05.012.146.035.022.006.161.038.052.013.14.033.029.007.165.04.047.01.132.032.04.01.162.038.045.01.138.033.036.009.164.038.047.011.126.03.048.011.163.038.04.01.135.03.045.011.166.039.032.007.137.032.051.012.161.036.037.009.134.03.054.013.16.036.036.009.13.029.06.014.147.033.04.01.142.03.054.013.152.034.015.004.163.036.056.013.14.031.028.006.168.037.044.01.14.031.036.008.16.035.057.013.127.028.044.01.16.035.056.012.124.027.047.01.16.035.056.012.12.026.054.011.16.035.048.01.125.027.056.012c.052.01.105.022.158.034l.049.01.127.027.054.011.162.035.038.008.134.028.053.011.147.031.054.011.133.028.059.012.146.03.022.005.162.034.06.012.122.026.054.01.156.033.056.012.129.026.044.009.164.034.049.01.13.026.05.01.16.033.054.01.124.025.053.01.159.033.06.012.111.022.067.014.156.03.053.01.119.025.06.012.16.031.049.01.124.024.063.012.16.032.037.007.135.026.056.011.15.03.05.009.135.026.063.012.143.027.027.006.163.03.056.012.135.025.041.008.162.031.059.011.128.024.045.01.162.03.057.01.128.024.049.01.16.03.061.01.123.023.05.01.163.03.056.01.122.023.058.01.161.03.054.01.123.022.056.01.163.03.049.009.128.023.06.01c.052.01.103.02.154.028l.058.01.122.023.062.01.147.027.055.01.134.023.062.011.144.026.033.005.16.029.06.01.133.024.042.007.162.028.065.011.113.02.062.01.159.028.059.01.127.022.052.009.165.028.052.009.129.022.052.009.166.028.05.008.13.022.055.01.167.028.042.006.133.023.058.01.166.027.04.006.14.023.053.01.169.027.034.006.14.022.06.01.16.026.035.006.147.024.06.01.153.024.019.003.166.027.065.01.135.022.038.006.17.027.055.008.133.021.046.007.164.026.059.01.133.02.047.008.165.025.058.01.13.02.048.007.168.025.055.009.13.02.052.008.17.026.046.006.134.021.055.008.168.026.042.006.14.02.054.009.17.025.038.006.138.02.06.01.14.02.076.01.126.02.065.009.143.02.044.007.155.023.064.009.129.018.048.007.168.024.057.008.135.02.044.006.171.024.051.007.138.02.048.007.17.023.05.008.136.018.05.007.17.024.05.007.137.019.05.006.174.024.037.005.145.02.051.007.174.024.035.004.148.02.05.007.178.024.018.002.167.022.04.006.184.024h.006l.173.024.05.006.36.047.047.006.16.02.023.004.177.022.053.007.147.019.034.004.175.022.051.007.143.018.043.005.173.022.05.006.143.018.043.005.173.021.054.007.13.016.059.007.168.02.054.007.131.016.056.007.172.02.043.006.141.016.057.007.17.02.043.006.141.016.055.006.175.021.028.003.152.018.06.007.159.019.023.002.174.02.054.006.148.017.036.004.175.02.053.006.139.016.048.005.173.02.05.005.145.016.044.005.173.019.057.006.128.014.058.006.172.019.052.005.134.015.057.006.174.019.042.004.14.015.057.006.176.019.038.004.146.015.055.006.177.018.029.003.152.016.057.006.177.018.024.002.16.016.054.006.166.016.02.003.174.017.057.006.155.015.028.003.178.017.056.006.143.014.041.004.169.016.069.007.126.012.058.005.168.016.063.006.127.012.058.006.168.015.065.007.124.011.062.006.171.016.054.005.132.012.059.005.173.016.048.004.143.013.053.005.177.015.038.004.148.013.057.005.16.014.059.005.139.012.064.006.159.013.03.003.167.014.063.005.14.012.045.004.174.015.058.004.147.012.038.004.178.014.053.005.144.011.049.004.176.015.052.004.142.011.048.004.176.014.057.004.131.01.063.006.171.013.056.004.129.01.066.005.169.013.057.004.13.01.066.005.172.013.044.003.142.01.06.005.174.013.038.002.148.011.068.005.154.011.038.003.163.011.066.005.143.01.04.003.177.012.06.004.147.01.039.003.178.012.057.003.145.01.045.003.178.012.055.004.148.01.04.002.183.012.047.003.147.01.05.002.18.012.047.003.145.009.053.003.18.01.04.004.153.009.052.003.18.01.04.003.153.01.05.002.183.011.03.002.163.01.049.002.185.01h.004l.185.011.054.003.16.009.03.002.183.01.053.003.151.008.04.002.18.01.054.002.15.008.044.002.181.01.052.002.145.008.05.003c.061.002.12.005.181.009l.048.002.147.007.052.003.182.009.044.002.144.007.06.003.179.008.041.002.152.007.054.002.182.009.036.002.154.006.056.003.184.008.023.001.166.007.056.003.178.007.013.001.178.008.062.002.16.007h.028l.184.008.055.002.155.007h.036c.062.004.12.006.182.008l.055.002.153.006.04.002.182.006.056.003.147.005.045.001.182.007.056.002.142.005.053.002.184.006.045.002.15.005.05.002.186.006.036.001.162.005.047.002.188.006h.026l.168.006.05.001.186.006h.029l.165.005.051.002.381.01.05.002.169.004.026.001.188.005.05.002.158.004h.038l.185.005.052.001.15.004.048.001.181.004.056.001.149.004.044.001.188.004.045.001.153.003.05.001.187.004.04.001.155.003.052.001.186.004h.037l.158.003.054.001.187.003h.027l.17.004h.046l.192.003h.019c.058.002.114.003.173.003l.055.001.38.005.053.001.168.002h.027l.187.003h.055l.162.003h.03l.188.002h.054l.157.002h.039l.188.002h.05l.156.002h.041l.189.002h.048l.154.001h.048l.187.002h.199l.05.001.189.001h.197l.054.001h.226l.158.001h.681a309.184 309.184 0 0 0 35.517-2.076l.16-.018.05-.006.11-.013.061-.007.105-.013.056-.006.102-.012.066-.008.118-.014.038-.004.154-.019.065-.007.096-.012.073-.008.082-.01.08-.01.084-.01.074-.009.09-.01.097-.012.12-.015.08-.01.077-.009.087-.01.073-.01.081-.01.08-.01.083-.01.066-.008.342-.042.046-.006.102-.013.054-.007.097-.012.062-.007.096-.012.05-.007.363-.046.035-.004.11-.014.047-.006.103-.014.051-.006.107-.014.034-.004.365-.048.05-.006.102-.013.047-.007.11-.014.042-.006.112-.014.036-.005.534-.071.02-.003.119-.016.038-.004.116-.016.027-.004.543-.073.017-.003.123-.016.03-.005.125-.017.012-.001.558-.077.01-.002.125-.017.028-.004.123-.017.025-.004.126-.017h.003l.563-.08.013-.002.134-.02h.008l.702-.101.015-.003.135-.02h.004c40.705-5.92 78.45-19.37 110.127-37.84l.003-.003.108-.063.004-.002.428-.25.02-.012.095-.056.02-.012.094-.055.02-.012c.134-.079.27-.16.405-.238l.034-.02.084-.05.032-.02.084-.048.036-.022.086-.05.01-.006.295-.175.037-.022.08-.048.037-.022.078-.046.043-.026.078-.046.042-.025.072-.044.065-.038.111-.067.06-.036.056-.033.07-.041.047-.029.083-.05.042-.025.082-.049.041-.025.118-.07.032-.02.094-.056.039-.024.083-.05.041-.025.084-.05.043-.026.106-.064.01-.006.128-.077.008-.005.115-.07.032-.02.088-.053.04-.024.094-.057.027-.016.12-.073.39-.237.004-.003.122-.075.01-.006.513-.315.006-.003.775-.478q2.696-1.67 5.323-3.384c.157-.103.31-.206.464-.312q.222-.138.443-.283a234.493 234.493 0 0 0 33.62-26.696l.005-.005.096-.093.005-.005.096-.092.007-.007.094-.09.007-.007.093-.09.01-.01c.37-.357.726-.705 1.092-1.064l.008-.008.086-.084.018-.018.084-.082.016-.017.082-.08.022-.022.08-.078.02-.02.08-.08.021-.021.081-.08.015-.015.087-.086.01-.01.09-.09.008-.007.092-.091.002-.002.384-.384.01-.01.09-.089.01-.01.085-.085.015-.015.078-.078.026-.027.067-.067.036-.036.067-.067.032-.033.068-.068.032-.032.07-.07.031-.033.065-.065.038-.038.066-.067.028-.028.072-.073.024-.024.077-.079.01-.01.088-.09.01-.01.274-.278.01-.01.068-.07.034-.035.065-.067.033-.033.065-.066.036-.037.063-.065.036-.037.062-.063.04-.042.056-.057.045-.047.055-.056.046-.047.053-.055.046-.048.052-.054.054-.055.045-.046.056-.058.044-.046.062-.065.036-.037.084-.086.016-.017.1-.105.013-.012.087-.09.031-.034.068-.071.036-.036.063-.067.043-.044.056-.059.042-.044.057-.06.043-.045.056-.059.043-.045.056-.058.045-.047.054-.058.043-.044.057-.06.042-.045.06-.063.037-.039.063-.068.035-.037.072-.076.026-.027.079-.083.02-.022.199-.211.012-.013.087-.093.02-.021.077-.082.028-.03.072-.077.025-.027.071-.076.033-.035.066-.07.03-.033.07-.074.028-.03.07-.075.03-.034.063-.067.037-.04.066-.07.029-.032c.027-.03.049-.052.075-.082l.02-.021.086-.093.012-.012.494-.536.006-.008.091-.1.01-.009.088-.096.014-.015.082-.09.017-.02.08-.087.02-.021.079-.087.016-.018.081-.089.017-.02.078-.085.02-.022.078-.086.019-.02c.258-.285.518-.573.773-.859l.013-.014.085-.095.01-.012.084-.093.016-.018.08-.09.016-.018.081-.09.014-.016.085-.096.01-.012.086-.096.01-.011c.322-.364.639-.723.958-1.088l.002-.003a162.59 162.59 0 0 0 22.663-33.113q.427-.84.84-1.68l.001-.003.057-.115.003-.006.053-.109.008-.016.052-.106.005-.01.054-.111.004-.008.055-.113.003-.007.055-.114.003-.005.346-.72.003-.007.053-.111.007-.015.048-.1.012-.027.045-.094.01-.022.046-.097.012-.024.043-.093.013-.027.042-.09.015-.031.044-.092.01-.023.048-.1.007-.018.053-.113.002-.004.278-.598.011-.026.044-.094.01-.025.043-.091.015-.034.04-.086.015-.033.038-.083.017-.037.037-.083.017-.037.035-.078.02-.042.034-.078.019-.04.034-.076.02-.043c.01-.025.024-.055.036-.08l.016-.037.04-.087.013-.03.048-.108.004-.01.108-.24.008-.019.043-.097.02-.042c.01-.026.02-.05.032-.075l.021-.048.03-.07.024-.052.029-.065.023-.052.028-.065.024-.054.028-.064.023-.052.029-.067.023-.053.028-.065.023-.051.029-.067.023-.053.028-.066.022-.05.03-.069.022-.05.032-.076.018-.04.04-.094.011-.025.051-.12.003-.007.046-.108.02-.046.031-.074.02-.046.03-.07.022-.052.028-.066.024-.057c.01-.02.016-.037.024-.057l.027-.063.024-.057.025-.06.024-.057.025-.06.025-.059.025-.06.022-.053a2.89 2.89 0 0 1 .028-.066l.021-.05.028-.069.02-.047.029-.07.019-.046.03-.073.01-.025.127-.306.005-.014.039-.093.009-.023.035-.086.013-.031.033-.082.015-.036.032-.077.016-.04.032-.08.015-.036.033-.081.014-.035c.01-.028.021-.054.033-.083l.014-.035.032-.078.016-.04.032-.08.013-.033.033-.084.012-.03.036-.09.006-.015.04-.1.005-.012.173-.438.004-.01.037-.094.008-.023.036-.088.01-.03.036-.09.01-.024.034-.089.012-.03.033-.087.011-.028.035-.09.01-.027.034-.089.01-.026.036-.091.01-.024c.011-.034.023-.061.035-.095l.006-.014c.013-.034.026-.07.04-.103l.001-.006c.102-.267.201-.529.301-.797v-.002l.04-.105.005-.012.038-.102.005-.015.037-.1.007-.016c.013-.039.023-.064.037-.102l.005-.013c.014-.038.024-.063.037-.102l.006-.014.038-.103.004-.01c.013-.038.024-.069.039-.107l.002-.006c.168-.46.331-.913.494-1.374l.001-.004a114.15 114.15 0 0 0 6.04-26.768 21.335 21.335 0 0 0-19.123-23.267q-1.077-.108-2.139-.107z" style="fill:#3d180b"/><ellipse cx="220.84" cy="216.06" rx="164.561" ry="104.002" transform="rotate(-12.197 220.84 216.06)" style="fill:#69341c"/><path d="M252.292 129.938a228.182 228.182 0 0 0-27.438 1.697l-.114.014-.023.003a236.66 236.66 0 0 0-55.85 13.88 21.333 21.333 0 1 0 15.294 39.832 193.067 193.067 0 0 1 45.844-11.374 185.487 185.487 0 0 1 22.287-1.386 21.333 21.333 0 0 0 0-42.666z" style="fill:#764126"/><path d="M110.292 301.01a32.153 32.153 0 0 1-22.834-9.604 31.719 31.719 0 0 1-9.166-22.614 32.128 32.128 0 0 1 9.604-22.604c45.854-44.803 113.479-75.521 185.583-83.844a321.364 321.364 0 0 1 93.875 2.344 32.116 32.116 0 0 1 25.813 37.333c-3.188 17.073-20.042 28.802-37.125 25.604a266.87 266.87 0 0 0-75.084-1.708c-57.604 6.396-113.062 31.146-148.27 65.916a31.275 31.275 0 0 1-22.396 9.177z" style="fill:#4d2100"/><path d="M252.286 65.938a292.218 292.218 0 0 0-35.177 2.165C178.356 72.821 140.842 85 108.62 103.323a21.333 21.333 0 1 0 21.093 37.09l.006-.004.142-.08.019-.011.136-.078.009-.004.146-.084.015-.007c.05-.03.094-.054.145-.082l.002-.001c.05-.03.098-.056.149-.084l.013-.008.295-.166.015-.008.299-.167.01-.006.301-.169.009-.004.303-.17.008-.003.305-.169.007-.004.149-.082.015-.008.139-.077.011-.006.15-.082.01-.006.303-.166.01-.005.303-.166.013-.007.298-.162.018-.01.302-.164.009-.004.302-.164.015-.008.303-.163.012-.006.301-.161.017-.01.15-.08.006-.003.147-.078.012-.007.152-.08.007-.004.31-.165.009-.004.308-.163.011-.006.308-.162.01-.005.309-.162.01-.006.307-.16.015-.007.152-.08.004-.002.15-.077.013-.007.151-.079.013-.006.144-.075.011-.006.153-.079.01-.005.15-.077.007-.004.156-.08.006-.003c.101-.052.212-.11.313-.16l.013-.008.304-.155.024-.012.298-.152.024-.012.299-.151.024-.012.303-.154.015-.008.156-.078h.002l.142-.072.03-.015.147-.074.013-.007.137-.068.026-.013.147-.073.017-.009.14-.07.016-.008.152-.075.016-.009.151-.074.003-.002.156-.077.015-.007.313-.155.01-.005.315-.155.013-.007.312-.152.018-.009.309-.151.018-.009.152-.074.014-.007.143-.069.02-.01.154-.074.006-.003.156-.075.006-.004.157-.075.017-.009.144-.069.014-.007.153-.073.02-.01.145-.07.01-.004.15-.072.028-.013.304-.145.024-.012.301-.143.033-.015.302-.144.025-.011.152-.072.006-.003.14-.066.037-.018.145-.068.02-.009.134-.063.029-.014.15-.07.015-.006.137-.065.03-.013c.045-.022.1-.048.146-.068l.028-.013.13-.061.028-.013.146-.068.03-.014.132-.06.022-.011.145-.067.037-.017.13-.06.021-.01.146-.067.038-.018.129-.059.022-.01.143-.066.037-.017.143-.065.021-.01.131-.06.042-.019.141-.064.029-.013.123-.056.038-.018.144-.065.03-.013.125-.057.037-.016.14-.064.041-.018.113-.052.04-.018.14-.062.046-.021.106-.048.047-.021.134-.06.053-.023.101-.046.046-.02c.042-.02.092-.042.134-.06l.053-.023.11-.05.038-.017.135-.06.056-.025.114-.05.04-.018.125-.055.057-.026.11-.048.067-.03.102-.045.059-.025.134-.06.036-.015.112-.05.05-.022.137-.06.046-.02.102-.044.056-.025.136-.059.042-.018.11-.049.046-.019.138-.06.047-.02.106-.047.05-.021.135-.059.052-.022.103-.044.048-.02c.041-.019.092-.04.133-.058l.058-.025.098-.042.064-.028.123-.053.052-.022.108-.046.07-.03.104-.045.061-.026.098-.041.093-.04.087-.037.064-.027.132-.056.049-.02.097-.042.062-.026.119-.05.073-.03.085-.036.067-.029.125-.052.066-.028.084-.035.062-.027.128-.053.068-.028.083-.035.065-.027.128-.054.064-.026.09-.037.06-.025.127-.053.065-.027.092-.039.084-.034.1-.041.07-.03.087-.035.101-.042.081-.033.077-.032.087-.036.096-.04c.029-.01.06-.023.088-.035l.07-.028.097-.04.099-.04.072-.03.077-.031.107-.044.087-.035.076-.03.074-.031.125-.05.071-.03.07-.028.081-.033.118-.047.08-.032.066-.027.113-.046.086-.034.08-.032.067-.027.115-.046.083-.033.079-.031.07-.028.123-.05.075-.03.078-.03.067-.027.132-.052.068-.027.077-.03a4.94 4.94 0 0 0 .084-.034l.114-.044.071-.028.082-.033.071-.028.128-.05.064-.025.084-.033.063-.025.138-.054.063-.024.083-.033.054-.021.153-.06.052-.02.293-.114.057-.021.15-.058.052-.02.093-.037.045-.017.17-.065.037-.015.097-.037.04-.015.19-.073.017-.006.107-.042.02-.007.187-.071.038-.015.099-.037.033-.013.182-.07.033-.012.103-.039.01-.004.199-.075.04-.015.098-.037.019-.007.196-.074.03-.011.32-.12.03-.011.317-.119.035-.013.322-.12.017-.006.333-.123.014-.005.21-.077.017-.007.109-.04.014-.005.338-.123.003-.002.224-.081.01-.004.341-.124.008-.003.339-.123.016-.005.337-.122.013-.004.34-.123.007-.002a257.676 257.676 0 0 1 46.782-11.881l.014-.003.37-.057.026-.004.362-.056.03-.005.365-.055.023-.004.364-.055.034-.005.234-.035h.006l.123-.02.02-.002.234-.035.015-.003.125-.018.009-.001.228-.034.038-.005.114-.017.02-.003.219-.032.039-.005.114-.017.01-.001.23-.033.04-.006.344-.05.057-.007.337-.048.06-.008.161-.023.074-.01.094-.013.075-.01.138-.02.087-.012.098-.013.07-.01.15-.02.08-.01.093-.014.08-.01.144-.02.08-.01.09-.013.097-.013.121-.016.093-.012.082-.011.138-.019.079-.01.1-.013.08-.01.15-.02.06-.008.119-.015.063-.008.157-.02.062-.009.115-.014.064-.009.158-.02.057-.007.13-.017.05-.006.167-.02.047-.007.147-.018.034-.005.171-.021.047-.006.155-.019.025-.003.174-.021.045-.006.178-.022a248.625 248.625 0 0 1 30.02-1.852H252.92l.06.001h.241l.046.001H253.38l.09.001h.143l.033.001h.128l.072.001h.043l.07.001h.119l.047.001h.064l.053.001h.064l.053.001h.062l.053.001.074.001h.04l.096.001.053.001.082.001h.033l.085.001h.037l.077.002h.044l.069.001h.053l.065.001h.044l.074.002h.046l.07.002h.043l.076.001h.042l.23.004h.02l.097.002h.035l.076.002h.05l.069.002h.046l.067.002h.046l.077.002h.037l.078.002h.039l.081.002.034.001.086.002h.03l.093.002h.024l.117.003h.002l.113.003h.027l.09.002h.03l.086.003h.032l.083.002.038.001.079.002h.036l.078.003h.04l.078.003h.036l.072.002.05.001.08.003h.03l.114.003h.031l.087.003.035.001.074.002.053.002.066.001.044.002.07.002.047.001.068.002.05.001.059.002.056.002.065.002.046.001.088.003h.023l.232.008h.032l.083.003.037.001.078.003.045.001.067.002.054.002.055.002.064.002.05.002.059.002.055.002.063.002.045.001.067.003.042.001.073.003.033.001.076.003h.021l.146.006.058.002.055.002.055.002.055.002.066.003.046.002.064.002.051.002.066.002.047.002.067.003.047.002.074.003.04.001.072.003.043.002.077.003.038.002.11.004.042.002.071.003.047.002.067.003.048.002.069.003.04.002.074.003.044.002.07.003.044.002.067.003.05.002.068.003.041.002.075.003.042.002.09.005h.022l.113.006.03.001.085.004.047.003.058.002.065.003.05.003.057.003.057.003.054.002.061.003.057.003.045.002.07.004.043.002.067.003.043.002.068.004.036.002.177.01h.004l.06.002.058.003.04.003.073.003.048.003.065.003.047.003.064.004.053.002.063.004.045.002.07.004.046.003.071.004.039.002.082.004.032.002.227.013.02.001.093.006.036.002.073.004.049.003.066.004.045.002.065.004.049.003.07.005.04.002.07.004.045.003.07.004.044.003.075.004.035.003.224.014.04.002.075.005.036.002.074.005.05.003.06.004.052.003.06.004.057.004.053.003.056.004.055.004.06.004.05.003.059.004.043.003.226.015.063.004.036.003.078.005.041.003.065.004.06.004.051.004.06.004.05.004.06.004.055.004.056.004.048.003.066.005.042.003.067.005.05.003.06.005.108.008.033.002.076.005.058.005.053.004.054.004.059.004.056.004.052.004.062.005.047.003.062.005.052.004.056.004.058.005.054.004.056.004.055.005.05.004.064.004.105.009.038.002.07.006.066.005.042.003.068.006.043.004.063.004.049.004.063.006.045.003.062.005.054.005.055.004.055.004.055.005.06.005.05.004.064.006.047.004.108.009.032.002.078.007.049.004.062.005.05.004.058.005.058.005.053.005.054.004.056.006.057.004.053.005.056.005.055.004.055.005.063.006.046.004.057.005.215.02.055.004.05.005.062.005.051.005.056.005.056.005.058.005.047.005.067.006.042.004.068.006.046.004.056.005.058.006.045.004.065.006.056.005.05.005.107.01.054.005.055.005.056.006.055.005.05.005.062.006.051.005.054.005.058.006.05.004.061.006.048.005.059.006.056.005.053.005.06.006.049.005.063.006.067.007.088.009.034.003.072.008.056.005.052.006.063.006.043.004.065.007.048.005.056.006.055.005.053.006.056.005.054.006.056.006.052.005.063.007.047.005.06.006.098.01.055.006.056.006.054.006.053.005.057.007.05.005.06.006.05.006.06.006.046.005.065.007.048.005.058.007.05.005.063.007.046.005.072.008.036.004.066.007.088.01.062.007.043.004.065.008.045.005.068.008.043.004.06.007.055.006.055.006.053.007.055.006.053.006.058.006.051.006.054.007.056.006.061.007.044.005.216.025.042.005.065.008.054.006.053.006.054.007.054.006.057.007.05.006.058.007.046.005.065.008.046.006.055.006.06.007.05.007.06.007.047.005.068.009.075.009.071.009.042.004.064.009.05.006.06.007.047.006.06.007.047.006.067.008.04.005.063.008.05.006.059.008.048.006.056.007.053.007.057.007.05.006.042.006.138.017.03.004.067.009.038.005.07.009.036.004.071.01.033.004.073.009.034.005.066.008.044.006.065.008.039.005.066.009.042.006.064.008.045.006.06.008.019.002.178.024.01.001.07.01.038.005.06.008.047.006.066.01.034.004.073.01.034.004.072.01.032.004.071.01.035.005.073.01.02.002.377.053.015.002.067.01.04.005.063.008.045.007.055.007.053.008.059.008.043.007.062.008.044.007.064.009.04.005.063.009.044.007.064.009.029.004.074.01.009.002.158.023.04.006.073.01.028.004.074.01.033.005.072.011.03.004.072.011.036.005.069.01.035.006.068.01.04.006.064.01.04.005.065.01.034.005.262.04.01.001.079.012.027.004.076.011.028.005.072.01.032.005.073.011.032.005.068.01.038.006.07.011.03.005.072.01.032.006.074.011h.001l.29.046.012.002.068.01.04.006.054.009.056.009.052.008.047.007.061.01.043.007.063.01.038.006.066.01.04.007.067.01.02.004.277.044.007.001.073.012.03.005.073.012.03.005.073.012.03.005.066.01.042.007.065.01.036.007.068.01.032.006.073.012.031.005.068.012.043.007.063.01.013.002.259.044.034.005.067.012.034.005.067.012.037.006.068.011.033.006.067.011.04.008.064.01.038.007.064.01.04.007.067.012.018.003.356.062.03.005.065.011.038.007.07.012.032.006.066.01.038.008.067.011.035.007.064.011.041.007.066.012.033.006.067.012.031.005q.174.03.346.062l.028.005.073.013.028.005.068.012.04.007.064.012.033.006.07.013.035.006.065.012.039.007.06.011.045.008.062.012.021.004.27.05h.008l.085.017.015.002.076.014.028.006.069.013.035.006.058.011.049.009.058.011.04.007.062.012.039.008.066.012.037.007.06.012.049.009.056.01.04.008.115.022.044.008.05.01.057.01.046.01.053.01.053.01.051.01.056.01.04.008.063.012.043.009.06.011.038.008.063.012.04.008.063.012.03.006.07.014.036.007.116.023.047.009.059.012.043.008.057.011.044.009.064.013.037.007.059.012.045.009.058.011.045.01.053.01.047.01.062.012.028.005.07.014.027.006.343.07.03.005.063.013.037.008.06.012.045.01.06.012.034.006.069.015.033.007.066.013.033.007.068.014.026.006.328.068.044.009.06.012.039.009.066.014.031.006.071.015.03.006.066.014.035.008.07.015.023.005.077.016.02.004.176.038.018.003.348.075.03.006.07.015.025.006.072.016.03.006.07.015.027.006.069.015.038.008.06.014.036.008.067.014.025.006.074.016.009.002.256.056.027.007.076.016.02.005.071.016.031.007.066.014.036.008.06.013.04.01.06.013.04.009.06.014.036.007.067.016.02.004.078.018.017.003c.035.009.071.017.106.024l.073.017.048.01.046.012.066.015.035.007.066.015.03.008.064.014.04.01.06.013.034.008.068.016.026.006.075.017.02.004.074.018.032.007.336.078.02.005.071.017.028.006.07.017.028.006.07.016.03.008.06.014.045.01.055.014.039.009.063.015.026.006.077.018.375.09h.003l.072.018.03.007.07.017.024.006.072.017.027.007.07.017.027.006.07.017.03.007.066.017.032.007.067.017.023.005.253.062.01.003.063.015.037.01.065.015.03.008.068.017.028.007.071.017.026.007.07.017.028.007.07.017.024.007.07.017.026.006.534.135.014.003.07.019.031.007.061.016.039.01.061.015.031.008.07.018.023.006.073.019.02.005.075.019.018.005.342.088.02.005.073.02.021.005.076.02.02.005.073.018.024.007.067.017.032.009.066.017.029.008.067.017.027.007.07.019.023.006.071.019.012.003.158.042.018.005.07.018.025.007.065.017.034.009.065.018.027.007.068.018.03.008.066.018.028.007.068.018.029.008.067.018.02.006.077.02.366.1.005.001.08.022.016.004.073.02.023.006.075.021.017.005.076.02.019.006.076.02.016.005.079.022.01.003.537.149.01.002.078.022.018.005.07.02.029.008.067.019.024.007.071.02.023.006.07.02.027.008.068.019.012.003.339.097.022.006.068.02.026.007.067.02.027.007.067.02.029.008.062.017.034.01.063.018.027.008.068.02.018.005.434.127.009.002.07.02.029.009.068.02.021.006.073.021.02.007.077.022.009.003.085.025h.001l.533.159.013.003.078.024.014.004.072.022.024.007.07.02.023.008.067.02.027.008.068.02.024.008.066.02.029.009.511.156.01.003.08.024.012.004.075.023.022.007.07.022.018.005.076.024.01.003.523.162.011.004.079.024.011.004.08.025.011.003.083.026.004.002.083.026.011.003.697.222.015.005.077.024.011.004.076.025.02.006.071.023.018.006.072.023.023.007.07.023.01.004c.143.045.287.092.429.139l.007.002.078.026.014.004.072.024.021.007.072.023.017.006.071.023.022.008.07.023.018.006.073.024.01.003.325.108.024.008.07.024.017.005.072.024.02.007.068.023.023.008.067.022.024.008.07.023.013.005.078.026.006.002.433.147h.001l.073.025.021.007.068.024.022.007.066.023.025.008.065.023.028.01.057.02.038.012.057.02.03.01.059.02.025.009.307.106.027.01.064.022.024.008.06.021.033.012.06.021.026.009.065.023.026.009.067.023.014.005.076.027.009.003.079.028.005.002.24.084.017.006.069.025.02.007.067.024.022.008.068.024.022.008.063.022.026.01.068.024.018.006.069.025.021.008.071.025.005.002.082.03h.004l.333.12.011.005c.025.01.053.02.079.028l.006.003.074.027.019.007.067.024.021.008.065.024.027.01.066.023.013.005.501.185.007.002.067.025.025.01.065.023.021.008.068.025.018.007.073.028.01.003.074.028.017.006.492.185.011.004.078.03.006.002.074.028.017.006.073.028.01.003.075.03.012.004.663.254.013.005.073.028.013.005.069.027.02.007.073.029.004.002.08.03.008.004.483.188.023.01.069.026.013.006.071.028.017.006.07.028.015.006.067.026.025.01.063.025.016.007.485.193.01.003.064.027.026.01.061.025.023.009.064.025.02.009.07.028.01.004.071.029.02.007.318.13h.001l.08.033.004.001.066.027.024.01.06.025.025.01.057.023.032.013.058.024.022.01.063.025.024.01.064.026.011.005.39.162.02.008.066.027.018.008.062.026.025.01.06.025.026.01.058.025.027.012.061.025.021.01.06.024.032.014.057.024.018.007.064.027.02.008.124.053.025.01.064.027.018.008.062.027.025.01.064.028.017.006.064.028.025.01.058.025.028.012.054.023.035.015.053.023.023.01.062.026.02.01.2.085.03.013.052.023.034.014.05.022.036.015.045.02.042.018.046.02.037.016.049.021.034.015.053.023.03.013.054.024.027.012.3.13.005.004.07.03.013.006.062.027.025.011.06.027.022.01.06.026.025.011.06.026.023.01.059.027.026.012.058.025.023.01.06.027.021.01.217.097.007.003.058.026.028.012.058.026.024.011.058.026.025.012.059.026.025.011.057.026.025.012.062.028.012.005.07.031.011.006c.104.046.204.092.307.14l.006.002.065.03.018.008.054.025.034.015.055.025.022.01.062.029.02.01.06.027.023.01.06.028.022.01.064.03c.132.06.263.121.394.183l.006.002.07.033.012.006.063.029.023.01.06.029.02.01.06.028.022.01.062.028.018.01.062.028.02.01.287.135.016.008.06.028.02.01.06.028.023.011.059.028.022.01.056.027.03.015.052.025.028.013.054.026.024.011.362.174.017.009.055.026.027.013.054.027.028.013.054.026.026.012.057.028.023.011.057.028.024.012.059.028.016.008.064.032.014.006.293.144.01.004.063.032.016.008.06.03.023.01.06.03.016.008.064.032.017.008.06.03.023.012.056.027.028.014.055.027.01.005.284.142.022.01.058.03.02.01.06.03.02.01.054.027.03.016.052.026.025.013.055.027.026.013.054.028.027.013.052.026.029.015.255.13.036.018.04.02.038.02.046.023.035.018.045.023.035.018.046.024.036.018.044.023.032.017.05.025.029.015.05.026.022.011.209.108.002.001.06.031.02.01.05.027.032.017.047.024.032.017.048.024.03.017.05.026.03.015.048.025.031.017.052.027.02.01.058.03.012.007.276.145.022.012.053.028.026.014.048.025.034.018.047.025.027.015.052.027.03.016.047.025.034.018.044.023.036.02.044.023.03.016.048.026.079.042.008.005.072.038.024.013.053.029.037.02.039.02.045.025.034.019.041.022.04.02.041.023.036.02.04.022.04.02.042.024.035.02.041.022.038.02.18.098.012.007.049.027.033.018.042.023.036.02.041.022.039.021.04.023.035.02.043.022.04.023.037.02.037.02.044.025.028.015.051.029.005.002.198.11.024.013.045.026.034.019.04.022.038.021.041.023.036.02.04.023.039.021.04.023.04.022.035.02.042.024.039.022.038.021.037.021.06.034.018.01.079.045.013.007.06.034.036.02.045.026.032.018.043.025.037.02.04.024.04.023.033.019.046.026.032.018.043.024.036.021.04.022.045.027.032.018.04.023.089.051.021.012.04.023.038.022.039.022.038.023.037.021.039.023.04.023.039.023.032.018.047.027.032.02.045.025.03.018.046.026.034.02.052.031.022.012.057.034.049.028.047.028.036.021.039.023.037.022.042.024.032.02.043.024.035.022.042.025.033.019.046.027.029.017.053.031.023.014.052.031.026.015.064.038.01.007.155.092.015.01c.022.012.04.022.06.035l.028.016.05.03.026.016.048.029.032.019.045.027.029.017.046.028.032.02.048.028.024.015.05.03.03.018.05.03.023.015.076.045.013.008.063.039.025.015.048.029.034.02.044.028.027.016.048.03.029.017.048.03.03.018.04.025.037.021.041.026.032.02.044.027.031.019.048.03.028.016.06.037.037.023.051.032.023.014.052.032.03.019.043.027.033.02.04.025.038.024.039.024.03.02.047.028.03.018.047.03.025.016.05.03.027.018.224.14.014.01.058.036.027.017.05.032.022.013.051.033.025.016.051.032.024.015.05.032.025.016.056.035.016.01.054.035.023.015.061.04.012.007.074.047.017.01.058.037.02.013.056.037.014.008.063.04.011.008.06.039.021.013.054.035.019.012.056.036.019.012.061.04.011.007.061.04.016.01.295.192.018.012.06.039.011.007.06.04.018.012.056.036.019.013.052.034.023.015.06.04.01.006.297.197.01.007.064.042.012.008.062.041.013.009.057.038.022.014.054.037.015.01.059.04.016.01.057.038.016.011.058.04.016.01.22.148.008.005.063.043.015.01.06.04.01.008.062.041.015.01.058.04.015.01.058.04.015.01.062.042.01.007.291.2.012.008.06.04.015.012.057.039.016.011.054.037.022.016.05.034.02.014.053.037.019.013.06.042.01.006.061.043.012.008.144.1.006.005.067.047.008.006.06.042.02.014.052.036.02.013.052.038.017.012.055.038.018.013.05.035.023.017.052.036.017.012.358.255.005.004.063.045.015.01.054.039.02.014.055.04.012.008.062.045.009.006.425.308.011.008.062.045.007.005.064.047.007.005.067.049.002.001.428.314.003.003.066.049.009.006.062.046.007.006.062.045.011.009.059.043.01.008.061.045.01.007.418.314.008.006.062.047.008.006.06.046.01.007.062.046.008.006.058.044.012.01.066.05h.001l.28.214h.001c.024.02.044.034.068.053l.004.003.063.048.008.007.06.045.011.009.064.05.347.268.004.003.064.05.01.007.055.044.007.005a21.333 21.333 0 0 0 26.255-33.632c-31.713-24.76-76.796-38.394-126.945-38.394z" style="fill:#3d180b"/><ellipse cx="277.333" cy="341.333" rx="215.984" ry="145.449" transform="rotate(-12.197 277.333 341.333)" style="fill:#5b2c06"/><ellipse cx="277.333" cy="384" rx="194.482" ry="102.045" transform="rotate(-10.784 277.333 384)" style="fill:#764126"/><path d="M434.751 337.782a32.013 32.013 0 0 0-29.666 19.987 27.297 27.297 0 0 1-3.141 5.401l-.138.195-.148.2c-17.563 24.025-70.204 52.654-136.834 60.89a285.933 285.933 0 0 1-34.91 2.212c-25.822 0-49.318-3.944-66.159-11.103a32 32 0 1 0-25.04 58.898 181.862 181.862 0 0 0 28.543 9.284h.003q.252.062.505.122l.007.001.5.119.016.004.158.037.015.003.16.038h.002l.161.038.018.004.156.036.019.005.32.074.018.004.16.037.01.002.328.075.017.004.161.037.01.002.327.074.019.004.16.036.01.003.166.037.165.036.016.004c.054.012.105.024.16.035l.015.004.326.072.019.004.159.035.015.003.155.034.012.003.157.034.024.006.156.033.021.005.156.034h.005l.153.034.034.007.149.032.028.006.15.032.009.002.156.033.029.007.149.031.035.008.144.03.01.002.15.032.039.008.146.03.032.007.134.028.036.008.134.028.046.01.138.028.045.01.126.025.033.007.135.028.049.01.137.028.048.01.117.024.051.01.127.026.048.01.135.027.052.01.12.025.04.008.128.026.055.01.131.027.056.011.105.021.073.015.11.022.052.01.14.027.045.01.122.023.047.01.125.024.052.01.136.027.05.01.12.023.051.01.123.024.054.01.13.025.062.012.107.02.06.012.12.023.051.01.138.026.048.009.12.023.058.01.117.023.056.01.132.025.059.011.104.02.078.014.1.019.065.012.124.023.07.013.087.016.097.018.091.017.069.013.122.022.073.013.09.017.091.016.089.016.074.014.12.021.073.014.08.014.117.021.07.013.08.014.12.021.072.013.085.015.106.02.079.013.075.014.12.02.077.014.085.015.094.016.097.017.067.012.124.021.071.013.093.016.094.016.087.015.073.013.123.021.072.012.087.015.106.018.083.014.072.013.124.02.073.013.084.014.11.018.077.013.077.013.121.02.077.013.08.014.109.017.087.015.071.011.122.02.075.013c.03.005.066.01.095.016l.089.014.092.015.072.012.127.02.068.011.089.015.11.018.08.013.073.01.13.022.063.01.103.016.095.015.082.013.078.013.122.019.076.012.082.013.112.017.083.013.076.012.117.018.085.013.076.012.117.018.074.011.081.013.122.019.074.01.086.014.114.017.078.012.077.012.12.018.084.012.073.012.124.018.071.01.081.013.122.018.078.011.084.013.112.016.082.012.076.011.122.018.08.012.09.013.1.015.086.012.075.01.125.019.078.01.077.012.127.018.07.01.092.013.111.016.083.012.073.01.126.018.07.01.095.013.108.015.086.012.073.01.122.017.08.01.078.012.12.016.087.012.07.01.13.017.068.01.11.014.094.013.084.011.075.01.132.018.066.01.095.012.11.015.084.01.074.01.13.017.068.01.087.01.118.016.085.011.071.01.132.017.07.009.116.015.087.01.088.012.084.01.111.015.08.01.092.012.11.014.084.01.077.01.129.016.072.009.08.01.128.016.076.01.095.011.105.013.085.01.075.01.129.015.076.01.1.011.099.012.089.011c.028.004.06.008.09.01l.109.014.084.01.086.01.115.014.081.01.076.009.133.015.067.008.114.013.091.011.093.01.07.009.133.015.074.009.102.012.1.011.087.01.075.008.13.015.076.009.096.01.109.013.085.01.075.008.127.014.083.009.1.01.1.012.087.01.074.008.13.014.077.008.097.01.108.012.088.01.073.007.134.015.07.007.12.013.081.009.1.01.066.007.139.015.065.006.14.015.057.006.113.012.06.006.14.014.07.007.126.013.074.007.101.01.065.007.14.014.067.007.122.012.086.009.093.01.073.006.135.013.07.007.126.013.081.007.09.01.078.007.131.012.074.007.11.01.095.01.095.009.081.008.12.011.081.007.136.013.056.005.11.01.064.007.14.012.069.007.125.01.08.008.104.01.06.005.144.013.07.006.132.012.076.007.09.008.08.007.131.012.072.006.125.01.08.008.1.008.087.008.115.01.082.006.133.012.067.005.099.009.078.006.13.011.068.006.126.01.086.008.098.007.079.007.13.01.068.006.142.012.066.005.099.008.08.006.127.01.073.006.138.01.067.006.108.008.07.006.134.01.07.006.146.011.051.004.118.009.058.004.146.011.065.005.133.01.08.006.104.008.066.005.144.01.063.004.147.011.058.004.115.009.057.004.147.01.064.005.148.01.058.004.121.009.052.003.146.01.072.005.143.01.058.004.117.008.056.004.15.01.06.004.15.01.06.004.12.008.051.003.154.01.058.004.153.01.055.003.121.008.052.003.152.01.06.004.15.009.06.004.125.007.047.003.153.01.063.003.153.01.048.003.133.007.044.003.157.01.056.003.154.008.054.004.132.007.044.003.16.009.052.003.16.009.044.002.14.008.04.002.157.009.058.003.155.008.049.003.14.008.04.002.156.008.06.003.154.008.053.003.131.006.044.003.164.008.045.003.165.008.045.002.144.007.036.002.166.008.047.002.164.008.042.002.148.007.032.002.164.008.052.002.162.007.043.002.15.007.031.001.164.008.054.002.161.007.044.002.14.007.044.002.158.006.055.003.154.006.064.003.125.005.054.002.151.006.059.003.157.006.05.002.138.005.04.002.166.007.047.001.166.007.043.001.157.006.023.001.168.006.052.002.165.006.04.002.156.005.026.001.174.006.038.002.17.005.047.002.15.005h.028l.17.006.049.002.167.005.037.002.16.005h.024l.172.006h.045l.167.006.045.001.154.005h.027l.17.006.049.001.17.005h.034l.16.005h.027l.173.006h.042l.169.005.044.001.162.005h.018l.178.004.04.001.173.005h.035l.171.005h.014l.18.004h.036l.177.005h.033l.172.004h.015l.17.004.054.002.166.003h.04l.163.004h.021l.18.004h.034l.176.004h.04l.166.003h.018l.178.004h.04l.175.003h.034l.17.004h.018l.177.002.04.001.172.002.044.001.164.002h.022l.172.003h.045l.176.003h.03l.176.002h.015l.18.002h.037l.173.003h.045l.168.002h.013l.179.002h.043l.173.002h.038l.174.001h.012l.18.002h.039l.175.001h.038l.181.002H228.275l.176.002h.222l.183.001h.036l.175.001H229.515l.178.001h.221a349.025 349.025 0 0 0 42.76-2.696l.142-.017.038-.005.106-.013.043-.005.134-.017h.004l.136-.018.054-.006.088-.011.056-.007.101-.013.035-.005c.046-.005.09-.01.135-.017l.048-.006.092-.011.057-.008.103-.013.03-.004.138-.017.042-.005.104-.014.042-.005.11-.014.031-.004.14-.018.033-.005.108-.014.046-.006.107-.014.033-.004.134-.017.05-.007.095-.012.048-.006.103-.014.035-.005.14-.018.025-.003.115-.015.05-.007.099-.013.037-.005.14-.018.023-.004c.038-.004.08-.01.119-.016l.043-.005.099-.013.045-.006.13-.018.012-.002.134-.017.05-.007.094-.013.045-.006.103-.014.063-.009.108-.014.056-.008.085-.011.053-.008.098-.013.045-.006.127-.017.057-.008.09-.013.044-.006.105-.014.04-.006.136-.018.035-.005.103-.015.046-.006.112-.016.03-.004.139-.02.03-.004.11-.015.043-.006.097-.013.052-.008.133-.018.024-.004.114-.016.043-.006.11-.016.033-.004.138-.02.024-.003.118-.017.038-.006.108-.015.04-.006.136-.02.018-.002.117-.017.05-.007.103-.015.038-.006.276-.04.044-.006.1-.015.046-.006.12-.018.017-.002.138-.02.038-.006.105-.015.047-.008.087-.012.054-.008.132-.02.037-.005.103-.016.05-.007.102-.015.034-.005.131-.02.05-.007.1-.015.04-.006.097-.015.05-.007.126-.02.06-.008.075-.011.068-.01.08-.012.052-.009.13-.02.043-.006.1-.015.046-.007.092-.014.052-.008.133-.02.02-.003.115-.018.053-.008.092-.014.046-.007.11-.017.053-.009.115-.017.034-.005.106-.017.043-.007.135-.02h.001c.045-.008.095-.016.14-.022l.04-.007.103-.016.039-.006.112-.017.032-.006.137-.021.035-.006.097-.015.055-.008.104-.017.032-.005.133-.021.044-.007.1-.016.042-.006.102-.017.041-.006.138-.022.02-.004.117-.018.042-.007.108-.017.033-.006.136-.022.036-.005.104-.017.044-.007.1-.016.042-.007.138-.023.01-.001.12-.02.055-.009.097-.016.037-.005.14-.023.009-.002.127-.02.043-.008.1-.016.042-.007.28-.046.029-.005.116-.02.03-.004.138-.023h.002l.147-.025.018-.003.123-.02.03-.005.282-.048.033-.005.108-.018.04-.007.124-.021.012-.002.144-.024.023-.004.114-.02.04-.006.128-.022.007-.001.144-.025.028-.004.11-.02.044-.007.097-.016.044-.008.132-.023.038-.006.098-.017.054-.01.092-.015.042-.007.132-.024.04-.006.1-.018.046-.008.096-.016.044-.008.134-.023.023-.004.112-.02.051-.009.102-.017.029-.006c.088-.015.193-.033.282-.05l.036-.006.101-.017.044-.008.12-.021.018-.003.131-.024.052-.009.088-.016.05-.008.09-.016.066-.012.11-.02.054-.01.084-.015.052-.009.102-.018.035-.007.131-.023.045-.008.1-.018.035-.006.118-.022.024-.004.139-.025.03-.006.102-.018.052-.01c.038-.006.062-.01.1-.018l.034-.006.14-.025.012-.003.13-.023.025-.005.119-.022.028-.005.278-.051.035-.006.111-.02.03-.007.139-.025.013-.002.132-.025.019-.003.128-.024.02-.004.283-.053.03-.005.118-.022.024-.005.285-.053.02-.004.119-.022.035-.007.278-.053.024-.004.12-.023.027-.005.125-.024.017-.003.141-.027.018-.003.127-.024.023-.005.13-.025.011-.002.143-.027.02-.004.125-.024.024-.005.127-.024.015-.003.288-.056.02-.003.136-.027h.004l.293-.058.016-.003.129-.025.018-.003.74-.146.013-.002.13-.026.02-.004.288-.057.014-.003.13-.026.018-.003.43-.086.022-.005.433-.087.012-.002.135-.027.013-.003.286-.058.02-.004.138-.028h.002l.292-.06.015-.003.129-.026.019-.004.28-.058.027-.005.134-.028c.005 0-.004 0 0 0l.44-.09.014-.004.292-.06.003-.001.146-.03.002-.001.44-.092.013-.002.29-.062.007-.001.139-.03.01-.002.431-.091.023-.005.434-.092h.002c.15-.033.293-.064.442-.095l.007-.002c.497-.107.978-.211 1.472-.32l.015-.003 1.327-.294.443-.099h.004l.584-.132.008-.002.88-.2.004-.002.289-.066.014-.003.137-.032h.002l.432-.1.018-.004.43-.1.006-.001.134-.031.014-.004.286-.067.01-.002.873-.205.008-.002c.342-.081.676-.16 1.018-.243l.007-.002c62.632-15.02 114.72-45.036 139.724-79.298.097-.133.193-.268.287-.402q.172-.232.34-.468a99.358 99.358 0 0 0 5.744-8.99l.005-.008.035-.062.008-.014.034-.061.007-.013.035-.061.007-.013.19-.343.009-.014.031-.057.012-.02.03-.055.01-.02.031-.056.01-.02c.012-.018.022-.037.033-.056l.006-.013.152-.278.002-.004.033-.06.01-.017.028-.053.014-.026c.01-.016.018-.032.026-.048l.016-.028.027-.051.011-.02.03-.057.008-.013.146-.274.005-.009.03-.057.011-.02.027-.051.015-.029.026-.047.014-.027.027-.05.013-.027.027-.05.013-.025.027-.051.009-.017.064-.122.004-.008.026-.05.016-.03.02-.04a.861.861 0 0 1 .02-.038l.022-.041.019-.036.021-.041.018-.035.023-.044.018-.034.021-.042.018-.035.023-.044.002-.004.063-.122.011-.022.023-.043.018-.038.02-.037.02-.04.02-.039.02-.039.02-.038.019-.039.02-.04.02-.04.02-.037.02-.042.019-.036.038-.076.01-.02.029-.057.017-.034.022-.044.017-.034.022-.044.017-.036.023-.044.016-.032.023-.046.017-.034.022-.046.016-.031.025-.052.014-.027.038-.078.006-.013.032-.063.016-.034.022-.045.016-.033.023-.046.015-.032c.007-.013.018-.035.024-.05l.014-.028.025-.05.014-.029.027-.055.01-.023.077-.16.003-.004.035-.073.01-.022.029-.058.01-.022.028-.058.01-.023.028-.058.01-.02.028-.06.01-.021.115-.241v-.001l.036-.077.008-.017.03-.064.008-.017.03-.063.008-.019.03-.064.007-.015.033-.07.004-.009.15-.326.004-.009.032-.07.007-.015.03-.066.007-.014.031-.071.004-.008.035-.077.002-.004.148-.328.002-.005.035-.08q.564-1.262 1.075-2.525a32.019 32.019 0 0 0-29.668-43.975z" style="fill:#69341c"/><path d="M324.77 298.667a327.437 327.437 0 0 0-40.145 2.541l-.25.031-.033.004-.236.03-.045.005-.228.03-.052.006-.226.028-.048.006-.235.03-.026.004-.225.028-.039.005-.228.03-.053.007-.22.028-.06.008-.22.028-.054.007-.224.03-.047.006-.21.028-.038.005-.22.029-.064.008-.21.028-.07.01-.205.027-.076.01-.204.028-.07.01-.176.023-.093.013-.178.024-.068.01-.205.028-.077.01-.198.027-.082.012-.195.027-.087.012-.159.022-.113.016-.151.021-.1.014-.171.024-.096.014-.18.025-.1.015-.18.026-.1.014-.15.021-.122.018-.14.02-.13.019-.139.02-.104.015-.172.025-.108.016-.17.025-.113.016-.126.02-.153.022-.102.015-.18.027-.096.014-.168.025-.111.016-.12.018-.164.025-.112.017-.127.019-.16.024-.096.015-.177.027-.101.015-.172.027-.106.016-.139.021-.138.021-.126.02-.107.016-.17.027-.09.014-.193.03-.075.012a35.83 35.83 0 0 0-.212.033l-.066.01-.24.039-.036.005-.426.068-.045.007-.242.039-.04.006-.243.04-.045.007-.256.041-.024.004-.433.07-.005.002-.276.045-.036.005-.248.041-.036.007-.269.044-.01.002-.724.12-.01.003-.283.047h-.004a338.285 338.285 0 0 0-49.093 12.079 21.333 21.333 0 0 0 13.354 40.522 300.066 300.066 0 0 1 56.683-12.552 284.746 284.746 0 0 1 34.893-2.218 21.333 21.333 0 1 0 0-42.666z" style="fill:#a77554"/><path d="m324.586 234.666-.188.001a393.081 393.081 0 0 0-47.64 3.018c-49.585 6.128-96.822 20.91-136.603 42.749a21.333 21.333 0 1 0 20.531 37.401 305.221 305.221 0 0 1 45.412-20.116h.002l.669-.235.023-.008.245-.085.018-.007.4-.14.009-.002.252-.087.027-.01.246-.085.018-.006.397-.137.024-.008.237-.081.03-.01.391-.134.037-.013.23-.078.032-.012.229-.077.037-.013.384-.13.055-.019.2-.067.06-.02c.062-.022.117-.04.18-.06l.08-.028.114-.038.079-.027.174-.058.078-.026.165-.056.094-.03.104-.036.15-.05.103-.034.102-.034.143-.047.101-.034.107-.035.15-.05.09-.03.147-.048.108-.036.108-.035.13-.043.118-.039.095-.031.16-.053.088-.028.143-.047.1-.032.125-.041.085-.028.166-.054.084-.027.171-.056.077-.025.133-.043.103-.033.143-.046.08-.026.17-.055.08-.026.176-.056.059-.019.152-.048.066-.022.184-.059.064-.02.184-.059.07-.022c.051-.017.108-.035.16-.05l.06-.02.173-.055.067-.021.183-.058a3.17 3.17 0 0 0 .066-.021l.187-.06.054-.016.166-.053.05-.015.19-.06.063-.02.192-.06.052-.016.191-.06.034-.01.197-.062.043-.013.201-.063.048-.015.204-.063.037-.011.187-.058.039-.012.207-.064.038-.012.213-.065.032-.01.441-.136.033-.01.214-.065.031-.01.223-.067.009-.003.235-.071.225-.069.03-.008.218-.067.025-.007.468-.141.003-.001.232-.07.018-.005.958-.286.007-.002a367.778 367.778 0 0 1 55.095-11.784h.001c.354-.047.705-.095 1.06-.141l.007-.001c.264-.035.522-.07.787-.104l.013-.002.255-.033.013-.002.513-.065.019-.003.25-.032.02-.002.254-.032.006-.001.255-.033h.01l.242-.031.04-.005.235-.03.037-.004.243-.03a349.025 349.025 0 0 1 42.76-2.696H325.377l.136.001H325.794l.06.001h.139l.13.001H326.268l.062.001H326.47l.076.001h.066l.128.001h.08l.05.001h.091l.044.001h.096l.024.001q1.27.01 2.535.029a14.358 14.358 0 0 0 .517-.002c.218.01.437.018.657.022 26.897.514 51.32 4.442 71.905 11.199l.467.154.006.002.367.122.005.002.09.03.004.001.276.092.002.001.081.027.019.007.082.028.01.003.36.122.01.003.086.03.008.002.272.093h.001l.085.03.013.004.084.029.01.003c.09.03.179.062.268.093h.003l.078.027.029.01.074.026.014.005.252.088.02.007.073.025.028.01.074.026.014.005.252.088.018.007.077.026.024.009.075.026.017.006.244.087.026.009.068.024.037.013.063.023.035.012.23.082.024.01.07.024.033.012.07.025.01.004.145.052.032.011.063.023.042.015.059.022.04.014.219.08.034.012.065.023.037.014.06.022.044.016.059.021.093.034.049.018.05.018.058.022.043.016.06.022.037.014.221.081.03.011.069.026.031.011.063.024.044.016.106.04.043.015.057.022.042.016.06.022.044.016.058.022.037.014.111.042.041.015.056.021.045.017.06.023.04.015.059.022.039.015.105.04.047.018.057.021.04.016.061.023.043.016.055.021.061.024.078.029.054.02.052.02.047.019.058.022.045.018.05.02.073.027.064.024.061.024.044.017.057.022.045.018.061.023.043.017.092.036.05.019.05.02.052.02.049.019.053.02.055.022.041.016.095.037.045.018.057.022.05.02.044.018.058.022.043.017.086.034.06.024.05.02.05.02.051.02.044.017.059.024.048.018.06.024.079.032.05.02.049.02.053.021.048.019.05.02.064.026.062.025.065.026.047.018.055.023.043.017.06.025.042.016.077.032.05.02.066.027.04.016.065.026.037.016.068.027.033.014.1.04.008.004.092.038.03.012.071.029.034.014.067.027.036.015.098.04.015.007.083.034.035.015.067.027.035.015.078.032.021.009.1.042.02.007.08.034.034.014.069.029.031.013.077.033.025.01.099.041.02.008.08.034.028.012.078.033.025.01.082.035.02.008.097.041.03.012.07.03.034.015.07.03.03.012.08.034.03.013.088.038.027.012.072.03.033.014.074.032.025.01.199.086.025.01.076.034.028.011.082.036.016.007.102.044.009.004.092.04.021.009.08.035.024.01.085.037.015.007.101.044.01.004.09.04.022.01.08.034.024.01.085.038.014.006.099.043.023.01.077.035.026.011.077.034.022.01.204.09.003.002.096.042.017.008.087.039.015.007.203.09.011.006.092.04.013.006.095.043.004.002.208.094.008.003.093.043.012.005.094.043.008.003.204.093.01.004.096.044.006.003.307.141.01.004.09.042.014.006.301.14.016.007.088.04.01.005.304.142.01.005.096.045h.003l.302.143.018.008.086.04.011.006.302.143.01.005.096.045.002.001.3.144.015.007.396.19.013.007.297.144.01.005.085.041.018.009.093.045h.001l.203.1h.001l.097.048.007.004.4.197.004.002.301.15h.002l.097.05.004.001c.607.304 1.2.606 1.798.916a102.935 102.935 0 0 1 24.167 16.94l.003.003.272.264.002.002a21.333 21.333 0 1 0 29.771-30.564c-31.892-31.066-84.571-48.846-148.333-50.065a22.244 22.244 0 0 0-.416-.003h-.147q-.383-.017-.77-.02l-5.231-.04a28.054 28.054 0 0 0-.5-.003z" style="fill:#3d180b"/><circle cx="266.667" cy="416" r="10.667" style="fill:#4d2100"/><circle cx="245.333" cy="330.667" r="10.667" style="fill:#69341c"/><circle cx="373.333" cy="373.333" r="32" style="fill:#69341c"/><circle cx="373.333" cy="288" r="10.667" style="fill:#4d2100"/><circle cx="160" cy="373.333" r="10.667" style="fill:#69341c"/><circle cx="266.667" cy="224" r="10.667" style="fill:#4d2100"/><circle cx="213.333" cy="256" r="21.333" style="fill:#3d180b"/><circle cx="277.333" cy="64" r="21.333" style="fill:#3d180b"/><circle cx="320" cy="149.333" r="21.333" style="fill:#4d2100"/></g></svg>