<svg xmlns="http://www.w3.org/2000/svg" viewBox="0 0 512 512" style="enable-background:new 0 0 512 512" xml:space="preserve"><style>.st6{fill:#eaa9b9}.st35{fill:#da4545}.st301{fill:#bf8e9d}.st302{fill:#aa8190}.st303{fill:#d69eae}</style><g id="BULINE"><circle id="XMLID_2366_" cx="256" cy="256" r="256" style="fill:#efc971"/></g><g id="Icons"><g id="XMLID_3571_"><circle id="XMLID_3608_" cx="255.6" cy="270.2" r="175" style="fill:#edd094"/><path id="XMLID_3607_" class="st35" d="M225 131.4c-4.9-4.9-11.4-7.4-17.9-7.4s-13 2.5-17.9 7.4c-1.8 1.8-4.7 1.8-6.4 0-4.9-4.9-11.4-7.4-17.9-7.4-1.2 0-2.4.1-3.6.2-5.2.7-10.3 3.1-14.3 7.2-4.9 4.9-7.4 11.4-7.4 17.9 0 6.5 2.5 12.9 7.4 17.9l31.7 31.7c4 4 10.5 4 14.5 0l16-16 15.7-15.7c9.9-9.9 9.9-25.9.1-35.8z"/><path id="XMLID_3606_" class="st35" d="M320.3 159.2c-2.8-2.8-6.5-4.2-10.3-4.2-3.7 0-7.4 1.4-10.3 4.2-1 1-2.7 1-3.7 0-2.8-2.8-6.5-4.2-10.3-4.2-.7 0-1.4 0-2 .1-3 .4-5.9 1.8-8.2 4.1-2.8 2.8-4.2 6.5-4.2 10.3 0 3.7 1.4 7.4 4.2 10.3l18.2 18.2c2.3 2.3 6 2.3 8.3 0l9.2-9.2 9-9c5.8-5.7 5.8-14.9.1-20.6z"/><path id="XMLID_3605_" class="st35" d="M346.9 92.9c-2.8-2.8-6.5-4.2-10.3-4.2s-7.4 1.4-10.3 4.2c-1 1-2.7 1-3.7 0-2.8-2.8-6.5-4.2-10.3-4.2-.7 0-1.4 0-2 .1-3 .4-5.9 1.8-8.2 4.1-2.8 2.8-4.2 6.5-4.2 10.3 0 3.7 1.4 7.4 4.2 10.3l18.2 18.2c2.3 2.3 6 2.3 8.3 0l9.2-9.2 9-9c5.8-5.7 5.8-14.9.1-20.6z"/><path id="XMLID_3604_" class="st35" d="M306.4 28.2c-5.3-5.3-12.2-7.9-19.1-7.9-6.9 0-13.8 2.6-19.1 7.9-1.9 1.9-5 1.9-6.9 0-5.3-5.3-12.2-7.9-19.1-7.9-1.3 0-2.5.1-3.8.3-5.6.8-11 3.3-15.3 7.6-5.3 5.3-7.9 12.2-7.9 19.1 0 6.9 2.6 13.8 7.9 19.1l33.9 33.9c4.3 4.3 11.2 4.3 15.5 0l17.1-17.1 16.8-16.8c10.5-10.6 10.5-27.7 0-38.2z"/><g id="XMLID_3589_"><g id="XMLID_3599_"><path id="XMLID_3600_" class="st301" d="M78.2 255.1c-1 0-1.9 0-2.9.1-32.6 1.5-58.6 28.5-58.6 61.4v4.5c0 32.9 26 59.9 58.6 61.4 1 .1 1.9.1 2.9.1h27.4V255.1H78.2zm2.4 102.5h-2.4c-1 0-1.9 0-2.9-.1-18.8-1.5-33.6-17.2-33.6-36.4v-4.5c0-19.2 14.8-34.9 33.6-36.4.9-.1 1.9-.1 2.9-.1h2.4v77.5z"/></g><g id="XMLID_3594_"><path id="XMLID_3595_" class="st302" d="M92.4 255.1c-5.9 0-11.7.8-17.1 2.4-25.6 7.4-44.4 31.1-44.4 59.1v4.5c0 28 18.8 51.7 44.4 59.1 5.4 1.6 11.1 2.4 17.1 2.4h13.2V255.1H92.4zm2.4 102.5h-2.4c-4.1 0-8.1-.7-11.8-2v2h-2.4c-1 0-1.9 0-2.9-.1-18.8-1.5-33.6-17.2-33.6-36.4v-4.5c0-19.2 14.8-34.9 33.6-36.4.9-.1 1.9-.1 2.9-.1h2.4v2c3.7-1.3 7.7-2 11.8-2h2.4v77.5z"/></g><path id="XMLID_3593_" class="st6" d="M256.4 224.3v195.5c0 9.8-8 17.8-17.8 17.8H93.1c-9.8 0-17.8-8-17.8-17.8V224.3c0-4.8 3.9-8.7 8.7-8.7h163.6c4.9 0 8.8 3.9 8.8 8.7z"/><path id="XMLID_3592_" class="st302" d="M236.4 437.6v.9c0 8-6.5 14.4-14.4 14.4H107.6c-8 0-14.4-6.5-14.4-14.4v-.9h143.2z"/><path id="XMLID_3591_" class="st301" d="M236.4 437.6v.9c0 8-6.5 14.4-14.4 14.4h-63.4c-8 0-14.4-6.5-14.4-14.4v-.9h92.2z"/><path id="XMLID_3590_" class="st303" d="M256.4 419.8c0 9.8-8 17.8-17.8 17.8H93.1c-9.8 0-17.8-8-17.8-17.8V224.3c0-4.8 3.9-8.7 8.7-8.7.1 0 56.4 192 172.4 204.2z"/></g><path id="XMLID_3588_" d="M256.4 270.2v122.7c-4.7 0-9.3-1.8-12.9-5.3l-56.3-56.3c-8.8-8.8-13.1-20.2-13.1-31.7s4.4-23 13.1-31.7c7.1-7.2 16.1-11.4 25.4-12.7 2.1-.3 4.2-.4 6.3-.4 11.5 0 23 4.4 31.7 13.1 1.6 1.5 3.7 2.3 5.8 2.3z" style="fill:#ad3d3d"/><g id="XMLID_3573_"><g id="XMLID_3583_"><path id="XMLID_3584_" class="st301" d="M406.4 255.1v127.5h27.4c1 0 1.9 0 2.9-.1 32.6-1.5 58.6-28.5 58.6-61.4v-4.5c0-32.9-26-59.9-58.6-61.4-1 0-1.9-.1-2.9-.1h-27.4zm25 25h2.4c1 0 1.9 0 2.9.1 18.8 1.5 33.6 17.2 33.6 36.4v4.5c0 19.2-14.8 34.9-33.6 36.4-.9.1-1.9.1-2.9.1h-2.4v-77.5z"/></g><g id="XMLID_3578_"><path id="XMLID_3579_" class="st302" d="M406.4 255.1v127.5h13.2c5.9 0 11.7-.8 17.1-2.4 25.6-7.4 44.4-31.1 44.4-59.1v-4.5c0-28-18.8-51.7-44.4-59.1-5.4-1.6-11.1-2.4-17.1-2.4h-13.2zm10.8 25h2.4c4.1 0 8.1.7 11.8 2v-2h2.4c1 0 1.9 0 2.9.1 18.8 1.5 33.6 17.2 33.6 36.4v4.5c0 19.2-14.8 34.9-33.6 36.4-.9.1-1.9.1-2.9.1h-2.4v-2c-3.7 1.3-7.7 2-11.8 2h-2.4v-77.5z"/></g><path id="XMLID_3577_" class="st6" d="M255.6 224.3v195.5c0 9.8 8 17.8 17.8 17.8h145.5c9.8 0 17.8-8 17.8-17.8V224.3c0-4.8-3.9-8.7-8.7-8.7H264.4c-4.9 0-8.8 3.9-8.8 8.7z"/><path id="XMLID_3576_" class="st302" d="M275.6 437.6v.9c0 8 6.5 14.4 14.4 14.4h114.4c8 0 14.4-6.5 14.4-14.4v-.9H275.6z"/><path id="XMLID_3575_" class="st301" d="M275.6 437.6v.9c0 8 6.5 14.4 14.4 14.4h63.4c8 0 14.4-6.5 14.4-14.4v-.9h-92.2z"/><path id="XMLID_3574_" class="st303" d="M255.6 419.8c0 9.8 8 17.8 17.8 17.8h145.5c9.8 0 17.8-8 17.8-17.8V224.3c0-4.8-3.9-8.7-8.7-8.7-.1 0-56.4 192-172.4 204.2z"/></g><path id="XMLID_3572_" class="st35" d="M255.6 270.2v122.7c4.7 0 9.3-1.8 12.9-5.3l56.3-56.3c8.8-8.8 13.1-20.2 13.1-31.7s-4.4-23-13.1-31.7c-7.1-7.2-16.1-11.4-25.4-12.7-2.1-.3-4.2-.4-6.3-.4-11.5 0-23 4.4-31.7 13.1-1.6 1.5-3.7 2.3-5.8 2.3z"/></g></g></svg>