<svg xmlns="http://www.w3.org/2000/svg" viewBox="0 0 64 64"><defs><style>.cls-1{fill:#00bebd}.cls-4{fill:#ffac00}.cls-6{fill:#f3f3f3}</style></defs><g id="Coffee_cup" data-name="Coffee cup"><path class="cls-1" d="M11 19h32a2 2 0 0 1 2 2v2H9v-2a2 2 0 0 1 2-2z"/><rect x="7" y="23" width="40" height="4" rx="1" style="fill:#00aaa8"/><path style="fill:#93e6e5" d="M41 64H13l-3-37h34l-3 37z"/><path class="cls-1" d="M43 55H11l-1-20h34l-1 20zM13 10h4v9h-4z"/><ellipse class="cls-4" cx="27" cy="45" rx="8" ry="6" transform="rotate(-45 26.998 44.997)"/><path d="m23.25 50.61-1.43.47a4.58 4.58 0 0 1-1.35-1.65l2.15-.72a4.53 4.53 0 0 0 3.06-3.81c.45-3.9 3.47-5.07 5.85-6.39a4.7 4.7 0 0 1 1.61 1.4L30 41.66a4.52 4.52 0 0 0-2.3 3.47 6.58 6.58 0 0 1-4.45 5.48z" style="fill:#ea9807"/><rect class="cls-4" x="33" width="24" height="14" rx="2"/><path class="cls-4" d="m38 14.02 3 3L44.02 14l-6.02.02z"/><circle class="cls-6" cx="52" cy="7" r="2"/><circle class="cls-6" cx="45" cy="7" r="2"/><circle class="cls-6" cx="38" cy="7" r="2"/></g></svg>