<svg xmlns="http://www.w3.org/2000/svg" xml:space="preserve" width="2048" height="2048" style="shape-rendering:geometricPrecision;text-rendering:geometricPrecision;image-rendering:optimizeQuality;fill-rule:evenodd;clip-rule:evenodd"><defs><style>.fil0{fill:#212121;fill-rule:nonzero}</style></defs><g id="Layer_x0020_1"><path class="fil0" d="M1011.38 512.372c33.83 0 64.46 13.716 86.63 35.888 22.172 22.17 35.888 52.801 35.888 86.63 0 33.828-13.716 64.46-35.888 86.632-22.17 22.171-52.8 35.888-86.63 35.888-33.828 0-64.46-13.717-86.632-35.888-22.171-22.172-35.887-52.804-35.887-86.632s13.716-64.459 35.887-86.63c22.172-22.172 52.804-35.888 86.632-35.888zm41.38 81.138c-10.586-10.587-25.218-17.136-41.38-17.136-16.162 0-30.795 6.55-41.381 17.136-10.586 10.586-17.137 25.218-17.137 41.38 0 16.162 6.55 30.795 17.137 41.381 10.586 10.587 25.219 17.137 41.381 17.137s30.794-6.55 41.38-17.137c10.586-10.586 17.137-25.219 17.137-41.38 0-16.163-6.55-30.794-17.137-41.38zM1149.57 1163.23c0-17.673-14.328-32-32-32-17.674 0-32.002 14.327-32.002 32v340.393c0 17.673 14.328 32 32.001 32s32.001-14.327 32.001-32V1163.23zM962.431 1163.23c0-17.673-14.328-32-32-32-17.674 0-32.002 14.327-32.002 32v340.393c0 17.673 14.328 32 32.001 32s32.001-14.327 32.001-32V1163.23z"/><path class="fil0" d="M992.918 801.703h62.165c26.017 0 49.649 10.622 66.757 27.732 17.11 17.11 27.731 40.741 27.731 66.759v336.339c0 17.672-14.328 32-32 32H930.43c-17.673 0-32.001-14.328-32.001-32v-336.34c0-26.017 10.621-49.648 27.73-66.758 17.109-17.11 40.74-27.732 66.758-27.732zm62.165 64.002h-62.165c-8.35 0-15.966 3.44-21.507 8.98-5.54 5.54-8.98 13.157-8.98 21.509v304.338h123.138V896.194c0-8.352-3.44-15.969-8.98-21.508-5.54-5.54-13.157-8.981-21.506-8.981z"/><path class="fil0" d="M750.537 606.787c-12.15-12.771-32.354-13.274-45.125-1.124-12.771 12.15-13.275 32.354-1.125 45.125l201.38 212.029c12.15 12.771 32.354 13.274 45.126 1.124 12.77-12.15 13.274-32.354 1.124-45.125l-201.38-212.029zM1343.71 650.788c12.15-12.771 11.647-32.975-1.124-45.125-12.772-12.15-32.976-11.647-45.126 1.124l-201.38 212.03c-12.15 12.77-11.647 32.974 1.125 45.124 12.771 12.15 32.975 11.647 45.125-1.124l201.38-212.029zM515.598 702.803c28.867 0 55.005 11.704 73.924 30.625 18.921 18.919 30.625 45.057 30.625 73.924 0 28.867-11.704 55.005-30.625 73.924-18.919 18.921-45.057 30.625-73.924 30.625-28.866 0-55.004-11.704-73.925-30.625-18.92-18.919-30.624-45.058-30.624-73.924 0-28.866 11.705-55.004 30.624-73.925 18.921-18.92 45.059-30.624 73.925-30.624zm28.674 75.875c-7.335-7.334-17.475-11.873-28.674-11.873-11.2 0-21.34 4.538-28.675 11.872-7.334 7.335-11.872 17.475-11.872 28.675s4.537 21.339 11.872 28.674c7.336 7.335 17.475 11.873 28.675 11.873s21.339-4.539 28.674-11.873c7.334-7.335 11.873-17.475 11.873-28.674 0-11.2-4.538-21.339-11.873-28.674zM632.702 1230.81c0-17.673-14.328-32-32-32-17.674 0-32.002 14.327-32.002 32v272.818c0 17.673 14.328 32 32.001 32s32.001-14.327 32.001-32V1230.81zM482.716 1230.81c0-17.673-14.328-32-32-32-17.674 0-32.002 14.327-32.002 32v272.818c0 17.673 14.328 32 32.001 32s32.001-14.327 32.001-32V1230.81z"/><path class="fil0" d="M500.797 934.696h49.825c22.605 0 43.134 9.226 57.996 24.087 14.861 14.861 24.087 35.39 24.087 57.996v269.573c0 17.673-14.328 32-32 32h-149.99c-17.673 0-32-14.327-32-32V1016.78c0-22.606 9.225-43.135 24.087-57.996 14.861-14.861 35.39-24.087 57.995-24.087zm49.825 64.002h-49.825c-4.94 0-9.454 2.044-12.745 5.336-3.292 3.292-5.337 7.807-5.337 12.745v237.572h85.988V1016.78c0-4.938-2.044-9.453-5.336-12.745-3.292-3.292-7.806-5.336-12.745-5.336z"/><path class="fil0" d="M311.124 780.46c-12.15-12.771-32.354-13.274-45.125-1.124-12.772 12.15-13.275 32.354-1.125 45.125l161.404 169.937c12.15 12.771 32.354 13.274 45.126 1.124 12.77-12.15 13.274-32.354 1.124-45.125L311.124 780.46zM786.544 824.461c12.15-12.771 11.647-32.975-1.124-45.125-12.772-12.15-32.976-11.647-45.126 1.124L578.892 950.397c-12.15 12.772-11.647 32.975 1.125 45.125 12.771 12.15 32.975 11.647 45.125-1.124l161.402-169.937zM1512.18 702.803c28.867 0 55.005 11.704 73.924 30.625 18.921 18.919 30.625 45.057 30.625 73.924 0 28.867-11.704 55.005-30.625 73.924-18.919 18.921-45.057 30.625-73.924 30.625-28.867 0-55.005-11.704-73.924-30.625-18.921-18.919-30.625-45.057-30.625-73.924 0-28.866 11.704-55.004 30.625-73.925 18.919-18.92 45.058-30.624 73.924-30.624zm28.674 75.875c-7.335-7.336-17.475-11.873-28.674-11.873-11.2 0-21.339 4.538-28.674 11.872-7.335 7.336-11.873 17.475-11.873 28.675s4.539 21.339 11.873 28.674c7.335 7.334 17.475 11.873 28.674 11.873 11.2 0 21.339-4.538 28.674-11.873 7.334-7.335 11.873-17.475 11.873-28.674 0-11.2-4.538-21.339-11.873-28.674zM1629.28 1230.81c0-17.673-14.328-32-32-32-17.674 0-32.002 14.327-32.002 32v272.818c0 17.673 14.328 32 32.001 32s32.001-14.327 32.001-32V1230.81zM1479.3 1230.81c0-17.673-14.328-32-32-32-17.674 0-32.002 14.327-32.002 32v272.818c0 17.673 14.328 32 32.001 32s32.001-14.327 32.001-32V1230.81z"/><path class="fil0" d="M1497.38 934.696h49.824c22.606 0 43.135 9.226 57.995 24.087 14.862 14.861 24.088 35.39 24.088 57.996v269.573c0 17.673-14.328 32-32.001 32h-149.989c-17.673 0-32-14.327-32-32V1016.78c0-22.606 9.225-43.135 24.087-57.996 14.861-14.861 35.391-24.087 57.996-24.087zm49.824 64.002h-49.824c-4.94 0-9.455 2.044-12.746 5.336-3.292 3.292-5.337 7.807-5.337 12.745v237.572h85.988V1016.78c0-4.938-2.044-9.453-5.336-12.745-3.292-3.292-7.807-5.336-12.745-5.336z"/><path class="fil0" d="M1307.71 780.46c-12.15-12.771-32.354-13.274-45.125-1.124-12.771 12.15-13.275 32.354-1.125 45.125l161.402 169.937c12.15 12.771 32.354 13.274 45.126 1.124 12.77-12.15 13.274-32.354 1.124-45.125L1307.71 780.46zM1783.13 824.461c12.15-12.771 11.647-32.975-1.124-45.125-12.772-12.15-32.976-11.647-45.126 1.124l-161.404 169.937c-12.15 12.772-11.647 32.975 1.125 45.125 12.771 12.15 32.975 11.647 45.125-1.124l161.404-169.937z"/></g><path style="fill:none" d="M0 0h2048v2048H0z"/></svg>