<svg xmlns="http://www.w3.org/2000/svg" xml:space="preserve" width="655.359" height="655.359" style="shape-rendering:geometricPrecision;text-rendering:geometricPrecision;image-rendering:optimizeQuality;fill-rule:evenodd;clip-rule:evenodd" viewBox="0 0 6.827 6.827"><defs><style>.fil0{fill:none}.fil1{fill:#212121;fill-rule:nonzero}</style></defs><g id="Layer_x0020_1"><g id="_287787456"><path id="_287788296" class="fil0" d="M0 0h6.827v6.827H0z"/><path id="_287788800" class="fil0" d="M.853.853h5.12v5.12H.853z"/></g><g id="_287787552"><path id="_287787408" class="fil1" d="M1.814 1.607c-.033.034-.161.15-.193.185a2.852 2.852 0 0 0-.208.264 2.567 2.567 0 0 0 .172 3.119l.162-.14a2.6 2.6 0 0 1-.197-.263 2.548 2.548 0 0 1-.161-.295 2.352 2.352 0 0 1 .43-2.586l.14-.136-.041.687.17.047.11-1.08-1.015.03.029.21.602-.042z"/><path id="_287787960" class="fil1" d="M5.013 5.22c.033-.034.161-.15.193-.186a2.852 2.852 0 0 0 .208-.263 2.567 2.567 0 0 0-.172-3.119l-.162.14a2.6 2.6 0 0 1 .197.263 2.548 2.548 0 0 1 .161.294 2.352 2.352 0 0 1-.43 2.586l-.14.137.04-.687-.17-.047-.11 1.08 1.016-.03-.03-.211-.601.042z"/></g><path style="fill:#66bb6a;fill-rule:nonzero" d="m2.093 3.37.715.714L4.64 2.25l.15.15L2.884 4.31l-.075.075-.076-.075-.79-.79z"/></g></svg>