<svg xmlns="http://www.w3.org/2000/svg" viewBox="0 0 48 48"><defs><style>.cls-1{fill:#f6ccaf}.cls-2{fill:#ffdec7}.cls-3{fill:#edb996}</style></defs><g id="Design_Product" data-name="Design Product"><path class="cls-1" d="m17 23-6 6H1l6-6h10z"/><path class="cls-2" d="m17 23-4 4h-2.34A2.34 2.34 0 0 1 9 23z"/><path class="cls-3" d="M17 23v24H7V29h4l6-6z"/><path class="cls-1" d="m11 31 6-6v20a8 8 0 0 1-8-8v-6z"/><path class="cls-3" d="M41 29v18H17V23l6 6h18z"/><path class="cls-1" d="M41 31v14h-2a19 19 0 0 1-18.88-16.88L23 31z"/><path class="cls-1" d="M47 29H23l-6-6h24l6 6z"/><path class="cls-2" d="M45 27H29.66A13.65 13.65 0 0 1 20 23c-.1-.1.35 0 21 0z"/><path d="M29 17v6H19v-6a14.74 14.74 0 0 0 10 0z" style="fill:#db5669"/><path class="cls-1" d="M29 17a14.64 14.64 0 0 1-10 0l2.64-6.33a14.73 14.73 0 0 0 4.74.05c2.86 6.85 2.43 5.81 2.62 6.28z"/><path d="M26.38 10.72a14.67 14.67 0 0 1-4.74-.05L24 5z" style="fill:#374f68"/><path d="M29 17v4h-4.56A3.44 3.44 0 0 1 21 17.56a14.08 14.08 0 0 0 8-.56z" style="fill:#f26674"/><path class="cls-2" d="M29 17a14.09 14.09 0 0 1-8 .56l1.74-6.74a14.51 14.51 0 0 0 3.64-.1c2.86 6.85 2.43 5.81 2.62 6.28z"/><path d="M26.38 10.72a14.54 14.54 0 0 1-3.64.1c.1-.1-.26.65 1.84-4.42.7 1.66.99 2.39 1.8 4.32z" style="fill:#425b72"/><path d="M47.71 28.29c-6.56-6.55-6.06-6.1-6.33-6.21S42 22 30 22c0-4.15.05-5.08-.08-5.39-.33-1 1.46 3.49-5-12a1 1 0 0 0-1.84 0c-5.33 12.77-5 11.87-5.06 12.26S18 16 18 22c-11.94 0-11.31-.11-11.71.29-6.46 6.47-6.56 6.25-6.21 7.09S.83 30 6 30v17a1 1 0 0 0 1 1h34a1 1 0 0 0 1-1V30c5.27 0 5.58.2 5.92-.62a1 1 0 0 0-.21-1.09zM24.94 9.87a14.22 14.22 0 0 1-1.87 0L24 7.6zm-2.68 1.9a15.16 15.16 0 0 0 3.49 0l1.92 4.6a14.07 14.07 0 0 1-7.33 0zM20 18.35a15.61 15.61 0 0 0 8 0V22h-8zM7.41 24h7.18l-4 4H3.41zM8 30c3.26 0 3.32.09 3.71-.29l4.29-4.3V46H8zm32 16H18V25.41C22.61 30 22.43 30 23 30h17zM23.41 28l-4-4h21.18l4 4z"/><path d="M12.72 3h4.38a13 13 0 0 0-6 9.2 2 2 0 1 0 2 .16 11 11 0 0 1 21.72 0 2 2 0 1 0 2-.16 13 13 0 0 0-6-9.2h4.38a2 2 0 1 0 0-2H12.72a2 2 0 1 0 0 2z"/></g></svg>